<svg id="Component_1492_105" data-name="Component 1492 – 105" xmlns="http://www.w3.org/2000/svg" width="10.588" height="14" viewBox="0 0 10.588 14">
  <path id="download_-_2022-10-17T115516.361" data-name="download - 2022-10-17T115516.361" d="M232.419,178.591h-.434v-2.707A1.988,1.988,0,0,0,230,173.9h-3.132a1.988,1.988,0,0,0-1.988,1.988v2.707h-.434a1.306,1.306,0,0,0-1.306,1.306v5.93a2.069,2.069,0,0,0,2.069,2.069h6.45a2.069,2.069,0,0,0,2.069-2.069V179.9A1.305,1.305,0,0,0,232.419,178.591Zm-3.426,4.908v1.313a.563.563,0,0,1-1.125,0V183.5a1.2,1.2,0,1,1,1.125,0Zm1.593-4.908h-4.312v-2.707a.59.59,0,0,1,.589-.589H230a.59.59,0,0,1,.589.589v2.707Z" transform="translate(-223.136 -173.896)" fill="#ea7e7e"/>
</svg>
