<svg xmlns="http://www.w3.org/2000/svg" width="22.57" height="30.558" viewBox="0 0 22.57 30.558">
  <path id="download_-_2022-10-17T192400.292" data-name="download - 2022-10-17T192400.292" d="M256.961,181.857h-4.772a3.181,3.181,0,0,0-6.363,0h-4.772a3.185,3.185,0,0,0-3.182,3.181v20.679a3.185,3.185,0,0,0,3.182,3.181h15.907a3.184,3.184,0,0,0,3.181-3.181V185.039a3.185,3.185,0,0,0-3.181-3.181Zm1.591,23.861a1.592,1.592,0,0,1-1.591,1.591H241.054a1.592,1.592,0,0,1-1.591-1.591V185.039a1.592,1.592,0,0,1,1.591-1.591h1.591v1.591H255.37v-1.591h1.591a1.592,1.592,0,0,1,1.591,1.591ZM255.37,192.2h0a.8.8,0,0,1-.8.8h-7.954a.8.8,0,1,1,0-1.591h7.954a.8.8,0,0,1,.8.8Zm0,4.772h0a.795.795,0,0,1-.8.8h-7.954a.8.8,0,1,1,0-1.591h7.954a.795.795,0,0,1,.8.8Zm0,4.772h0a.795.795,0,0,1-.8.8h-7.954a.8.8,0,1,1,0-1.591h7.954a.8.8,0,0,1,.8.8ZM244.235,192.2h0a1.193,1.193,0,1,1-.35-.844,1.192,1.192,0,0,1,.35.844Zm0,4.772h0a1.193,1.193,0,1,1-.35-.844,1.193,1.193,0,0,1,.35.844Zm0,4.772h0a1.193,1.193,0,1,1-.35-.844,1.192,1.192,0,0,1,.35.844Z" transform="translate(-237.722 -178.491)" fill="#fff" stroke="#fff" stroke-width="0.3"/>
</svg>
