<svg xmlns="http://www.w3.org/2000/svg" width="27.567" height="37.242" viewBox="0 0 27.567 37.242">
  <path id="download_-_2022-10-17T192400.292" data-name="download - 2022-10-17T192400.292" d="M260.987,182.528h-5.779a3.852,3.852,0,0,0-7.7,0h-5.779a3.857,3.857,0,0,0-3.853,3.852v25.041a3.856,3.856,0,0,0,3.853,3.853h19.262a3.856,3.856,0,0,0,3.852-3.853V186.381a3.857,3.857,0,0,0-3.852-3.852Zm1.926,28.894a1.928,1.928,0,0,1-1.926,1.926H241.725a1.928,1.928,0,0,1-1.926-1.926V186.381a1.928,1.928,0,0,1,1.926-1.926h1.926v1.926h15.41v-1.926h1.926a1.928,1.928,0,0,1,1.926,1.926Zm-3.853-16.374h0a.963.963,0,0,1-.963.963h-9.631a.963.963,0,1,1,0-1.926H258.1a.963.963,0,0,1,.963.963Zm0,5.779h0a.962.962,0,0,1-.963.963h-9.631a.963.963,0,1,1,0-1.926H258.1a.962.962,0,0,1,.963.963Zm0,5.779h0a.962.962,0,0,1-.963.963h-9.631a.963.963,0,1,1,0-1.926H258.1a.963.963,0,0,1,.963.963ZM245.577,195.05h0a1.445,1.445,0,1,1-.423-1.022,1.444,1.444,0,0,1,.423,1.022Zm0,5.779h0a1.445,1.445,0,1,1-.423-1.022,1.445,1.445,0,0,1,.423,1.022Zm0,5.779h0a1.444,1.444,0,1,1-.423-1.022,1.444,1.444,0,0,1,.423,1.022Z" transform="translate(-237.572 -178.333)" fill="#6abf4c" stroke="#6abf4c" stroke-width="0.6"/>
</svg>
